<svg width="1326" height="885" viewBox="0 0 1326 885" fill="none" xmlns="http://www.w3.org/2000/svg">
<path d="M83 299.2C83 299.2 955.1 77.7 857.7 158.5C760.3 239.3 550.7 293.8 700.2 293.3C849.7 292.8 1204.4 258.5 1044.1 393.7C883.8 528.9 850.1 529.8 984.1 566.1C1118.1 602.4 1535.9 801.6 741.5 849.8C-52.9 898.1 276.7 733.1 276.7 733.1C276.7 733.1 461.6 652.4 239.9 570.8C33 463.8 34.8 370.3 108.8 358.9C182.8 347.5 596.3 332.3 83 299.2Z" fill="#BDCBD4"/>
<path d="M1197.6 768.2C1197.5 767.8 1190.2 730.6 1155.8 688.4C1124.1 649.4 1062.2 598.1 947.5 574.9C876.5 560.5 839.5 541.5 834.2 516.6C830.7 500.2 840.6 481.6 865.2 458.2C886.8 437.7 917.6 415.8 947.3 394.6C966.9 380.6 987.2 366.2 1004.9 352.1C1026.6 334.9 1035.6 322.9 1032.5 315.5C1024.8 297.3 944.5 307.5 842.9 320.5C797.5 326.3 746.1 332.9 695.6 337.5C629.9 343.6 600.7 342.4 598.1 333.5C594.5 321.2 644.5 295.3 720.1 256.1C760 235.4 805.3 211.9 854.1 184.6C895.5 161.5 914.6 144.7 911 134.8C898.8 101.5 641.2 151.3 638.6 151.8L638.4 150.8C649.1 148.7 899.5 100.3 911.9 134.4C915.8 145 897 161.7 854.6 185.4C805.8 212.7 760.5 236.2 720.6 256.9C648.1 294.5 595.7 321.7 599.1 333.2C601.5 341.3 632.1 342.3 695.5 336.5C746 331.8 797.4 325.3 842.8 319.5C944.8 306.5 1025.4 296.2 1033.4 315.1C1036.7 323 1027.6 335.3 1005.5 352.9C987.8 367 967.5 381.4 947.8 395.4C888.7 437.5 827.5 481 835 516.4C840.2 540.8 877 559.7 947.6 573.9C998.4 584.2 1043.2 600.8 1080.7 623.2C1110.8 641.2 1136.3 662.9 1156.5 687.8C1191 730.2 1198.4 767.6 1198.4 768L1197.6 768.2Z" fill="#1A1A1A"/>
<path d="M62.8 481.4C29.1 444.1 17.1 413 27.3 389C36.9 366.4 66.1 349.9 114 340.1C154.9 331.7 199.5 330.2 221 329.4C231.2 329 232.5 328.2 232.7 327.9C230.7 323 113.8 308.4 35.7 299.8L33.8 299.6L35.6 298.9C200.4 230.6 547.5 162.6 551 161.9L551.2 162.9C547.7 163.6 203.3 231.1 37.8 299.1C47.4 300.2 91.3 305.1 134.7 310.7C233.9 323.4 233.8 326.7 233.8 328.2C233.8 329.1 232.8 330.2 221.2 330.6C199.8 331.3 155.2 332.9 114.4 341.3C66.8 351.1 37.9 367.3 28.4 389.6C18.4 413.2 30.3 444 63.7 481L62.8 481.4Z" fill="#1A1A1A"/>
<path d="M719 867H578V873.5H719V867Z" fill="#272727"/>
<path d="M708.3 860.6H584.1V867H708.3V860.6Z" fill="#FDDFD2"/>
<path d="M465.4 518.3C465.4 518.3 566.6 670.2 584 749.4L520.8 876.5L465.4 518.3Z" fill="#096473"/>
<path d="M656.3 833.5L520.9 876.5L545.3 645H669.8L656.3 833.5Z" fill="#FDDFD2"/>
<path d="M262.4 454.5L139.3 526.7C139.3 526.7 17.5 757.4 33.3 834.8L127.7 876.5H520.9C520.9 876.5 511.9 564.1 465.5 518.3L359.4 462.2L262.4 454.5Z" fill="#008EA3"/>
<path d="M359.3 425.1V462.2C359.3 462.2 333.9 504.7 262.4 454.5L287.5 312.7L355.2 418.9L359.3 425.1Z" fill="#FFC7BB"/>
<path d="M359.3 425.1V450.2C343.1 449.3 294.8 440.1 294.7 360.7L355.3 418.8L359.3 425.1Z" fill="#C98272"/>
<path d="M411.3 311.4C411.3 311.4 400.2 416.6 359.3 425.2C349.9 427.2 338.8 424 326 413.2C307.2 397.4 295.7 374.7 293 350.3C288.9 314.6 295.3 279.2 295.3 279.2L391.9 306L411.3 311.4Z" fill="#FFC7BB"/>
<path d="M587.9 845.3L608.2 861L595.9 838.2L587.9 845.3Z" fill="#281616"/>
<path d="M484.5 711.4L480 715.2C478.7 716.3 476.7 716.2 475.5 714.8L467.8 705.8C466.7 704.5 466.8 702.5 468.2 701.3L472.7 697.5C474 696.4 476 696.5 477.2 697.9L484.9 706.9C486 708.2 485.9 710.2 484.5 711.4Z" fill="#281616"/>
<path d="M477.7 702.8L471.9 707.8C470.2 709.3 467.6 709.1 466.1 707.3L459.6 699.7C458.1 698 458.3 695.4 460.1 693.9L465.9 688.9C467.6 687.4 470.2 687.6 471.7 689.4L478.2 697C479.7 698.7 479.5 701.4 477.7 702.8Z" fill="#FB2257"/>
<path d="M594.8 839.9L589 844.9C587.3 846.4 584.7 846.2 583.2 844.4L472.2 714.2C470.7 712.5 470.9 709.9 472.7 708.4L478.5 703.4C480.2 701.9 482.8 702.1 484.3 703.9L595.3 834.1C596.8 835.8 596.5 838.4 594.8 839.9Z" fill="#F8CA7A"/>
<path d="M623 759.6C623 759.6 668.4 732.5 671.7 733.5C675 734.5 673.3 749.3 673.3 749.3C673.3 749.3 625 777 623 759.6Z" fill="#FFC7BB"/>
<path d="M622.6 776.8C622.6 776.8 622.4 765.9 667.6 771.7C667.6 771.7 669.1 783.5 657.4 782.8C645.7 782.1 626.7 784.3 622.6 776.8Z" fill="#FFC7BB"/>
<path d="M623 786.4C623 786.4 657.6 779.8 666.9 784.9C666.9 784.9 669.4 794.6 661 795.8C652.6 797 621.6 800.1 623 786.4Z" fill="#FFC7BB"/>
<path d="M673.3 749.3L661 765.4V755.7L673.3 749.3Z" fill="#C98272"/>
<path d="M202.7 633.8C202.7 633.8 196.7 710.8 153.4 774.5L321.4 822.5C321.3 822.6 296.7 712 202.7 633.8Z" fill="#096473"/>
<path d="M581.4 778.9C580.1 769 527.6 768.3 518.7 769C509.8 769.8 439.3 816.8 431 818.8C424.8 820.3 405.7 816.2 396.5 814.1C392.7 813.2 388.8 812.4 384.9 811.8L140.3 771.5C131 768.3 120.6 766.4 109.6 766.4C68.8 766.4 35.6 791.5 35.6 822.5V823.2C36.1 853.9 69 878.6 109.6 878.6C111.1 878.6 112.5 878.6 114 878.5L391.2 871.8H391.5L427.4 870.9C445.3 884.8 514.6 860.3 514.6 860.3L557.3 864.6C572.2 861.1 563.4 848.9 563.4 848.9C583.4 848.9 572 830.7 572 830.7C572 830.7 575.3 830.1 576.9 824.1C583.9 830.3 590.7 829.2 590.7 829.2C590.7 829.2 582.7 788.8 581.4 778.9ZM536 790.3L563.9 797.4C564.5 800.1 565.1 802.6 565.8 804.9C553.9 797.2 537.1 790.7 536 790.3Z" fill="#FFC7BB"/>
<path d="M514.7 860.3C514.7 860.3 445.3 884.8 427.5 870.9L391.6 871.8H391.3L114.1 878.5C112.6 878.6 111.2 878.6 109.7 878.6C69.2 878.6 36.2 853.9 35.7 823.2C56.6 841.8 100.8 866.7 182.3 857.3C308 842.9 498 843.9 514.7 860.3Z" fill="#C98272"/>
<path d="M178.3 731.8L175.5 730.7C193.8 684.1 202.8 644.1 202 611.8C201.4 585.8 194.5 564.6 181.6 548.9C156.7 518.8 118.7 519.6 118.3 519.7L117.6 516.8C120.7 516 157.3 516.9 182.2 545C196.3 561 204 582.7 205 609.6C206.2 642.7 197.2 683.8 178.3 731.8Z" fill="#1A1A1A"/>
<path d="M411.3 311.4C411.3 311.4 400.2 416.6 359.3 425.2C359.3 425.2 399.3 353 391.9 306L411.3 311.4Z" fill="#C98272"/>
<path d="M304.1 308.5C304.1 308.5 453.5 355.9 454.9 249.5C456.4 143.1 417.7 261.6 394.5 238.9C371.3 216.2 300.1 188.6 295.9 253.9C295.9 253.9 265.9 223.9 280.9 324.5C286.2 342.8 304.1 308.5 304.1 308.5Z" fill="#1A1A1A"/>
<path d="M289.1 320.4C289.1 320.4 264 274.3 270.1 318.1C276.2 362 281.1 357.5 289.1 320.4Z" fill="#FFC7BB"/>
<path d="M281.6 316.7C281.6 316.7 268.7 295.1 275 324.4C281.3 353.7 284.2 322.5 284.2 322.5L277.4 325.6L281.6 316.7Z" fill="#C98272"/>
<path d="M320.4 499.3C306.2 499.3 293.9 496.1 284.2 492.1C259.9 482 246 465.4 245.4 464.7L247.7 462.8C247.8 463 261.7 479.7 285.4 489.4C307.2 498.4 342 503.1 384.3 474.7L386 477.2C361.4 493.8 339.2 499.3 320.4 499.3Z" fill="#1A1A1A"/>
<path d="M375.5 296.2C364.7 296.2 352.7 294.4 339.6 290.8L339.9 289.8C373 298.8 398.7 296.4 416.3 282.5C442.1 262.2 441.2 223.9 441.2 223.6H442.2C442.2 224 443 262.8 416.9 283.4C406 291.9 392.2 296.2 375.5 296.2Z" fill="white"/>
<path d="M311.3 256.1L310.3 255.8C314 244.3 320.5 236.4 329.7 232.5C339.2 228.4 356.7 226.5 385.7 240.5C386.4 240.8 386.9 241.1 387 241.1L386.9 241.4V242.1C386.7 242.1 386.6 242 385.2 241.4C356.5 227.5 339.4 229.4 330 233.4C321.3 237.2 314.9 244.8 311.3 256.1Z" fill="white"/>
<path d="M367.6 281.6C360.4 281.6 352.6 280.9 344.3 279.6L344.5 278.6C374.6 283.3 397.6 279.4 412.9 267C429.7 253.4 430.9 234 430.9 233.9L431.9 234C431.9 234.2 430.7 254 413.6 267.9C402.2 277 386.8 281.6 367.6 281.6Z" fill="white"/>
<path d="M633.7 805.7C633.7 805.7 661.9 792.4 671 793.8C671 793.8 675.2 800.1 668.2 803.1C661.3 806.1 635.3 816 633.7 805.7Z" fill="#FFC7BB"/>
<path d="M1274.7 884.2H5.3C2.4 884.2 0 881.8 0 878.9C0 876 2.4 873.6 5.3 873.6H1274.6C1277.5 873.6 1279.9 876 1279.9 878.9C1280 881.8 1277.6 884.2 1274.7 884.2Z" fill="#272727"/>
<path d="M924.8 862.1H1122C1124.7 862.1 1127.1 860.4 1128.1 857.9L1169.7 746.6C1171.3 742.4 1168.2 737.9 1163.6 737.9H965.8C963.1 737.9 960.7 739.6 959.7 742.1L918.8 853.4C917.2 857.7 920.3 862.1 924.8 862.1Z" fill="#272727"/>
<path d="M1167.1 753.2L1128 857.8C1127 860.4 1124.5 862.2 1121.7 862.2H931.4C926.7 862.2 923.5 857.5 925.1 853.1L939.8 813.6L964.1 748.5C965.1 745.9 967.6 744.1 970.4 744.1H1160.7C1165.5 744.1 1168.8 748.8 1167.1 753.2Z" fill="#FF3262"/>
<path d="M1123.7 871.8H926.7C924 871.8 921.9 869.6 921.9 867C921.9 864.3 924.1 862.2 926.7 862.2H1123.7C1126.4 862.2 1128.5 864.4 1128.5 867C1128.5 869.6 1126.4 871.8 1123.7 871.8Z" fill="#DBBEBF"/>
<path d="M922 871.8H740.4C737.7 871.8 735.6 869.6 735.6 867C735.6 864.3 737.8 862.2 740.4 862.2H922C924.7 862.2 926.8 864.4 926.8 867C926.9 869.6 924.7 871.8 922 871.8Z" fill="#272727"/>
<path d="M1167.1 753.2L1128 857.8C1127 860.4 1124.5 862.2 1121.7 862.2H931.4C926.7 862.2 923.5 857.5 925.1 853.1L939.8 813.6L1074.4 744.1H1160.7C1165.5 744.1 1168.8 748.8 1167.1 753.2Z" fill="#DD2F57"/>
<path d="M783.6 256.2L760.6 324.4H854.4L833.1 256.2H783.6Z" fill="#FF3262"/>
<path d="M796.4 219.2L766.3 256.2H847L818.6 219.2H796.4Z" fill="#272727"/>
<path d="M818.6 185H796.4V219.3H818.6V185Z" fill="#272727"/>
<path d="M806.7 256.2V324.4H854.4L833.1 256.2H806.7Z" fill="#DD2F57"/>
<path d="M808.2 0H805.2V202.1H808.2V0Z" fill="#272727"/>
<path d="M941.4 306.4L918.4 374.6H1012.2L990.9 306.4H941.4Z" fill="#FF3262"/>
<path d="M954.2 269.4L924.1 306.4H1004.8L976.4 269.4H954.2Z" fill="#272727"/>
<path d="M976.4 235.2H954.2V269.5H976.4V235.2Z" fill="#272727"/>
<path d="M964.4 306.4V374.6H1012.2L990.9 306.4H964.4Z" fill="#DD2F57"/>
<path d="M965.9 50.2H962.9V252.3H965.9V50.2Z" fill="#272727"/>
<path d="M1101.6 473.8V378.3H1190.2L1101.6 473.8ZM1102.6 379.3V471.3L1187.9 379.3H1102.6Z" fill="#1A1A1A"/>
<path d="M756 481.1L758 480.9L755 456.2L753 456.4L754.4 468.3C751.8 466.3 721 442.6 689.1 447.9C672 450.8 657.4 461.3 645.9 479.4C642.1 475.9 626.9 463.4 606.5 464.7C588.4 465.8 571.1 477.3 555.2 498.7L554.1 500.2L552.5 486.9L550.5 487.1L553.5 511.8L555.5 511.6L554.2 500.7L754.7 470.3L756 481.1ZM558.3 497.9C573.5 478.3 589.7 467.8 606.7 466.7C607.7 466.6 608.6 466.6 609.6 466.6C630.7 466.6 645.4 481.5 645.5 481.7L646.4 482.6L647.1 481.5C658.4 463.3 672.7 452.7 689.5 449.9C717.3 445.3 744.4 463.3 751.6 468.6L558.3 497.9Z" fill="white"/>
<path d="M706.2 507.1L673.4 582C673.4 582 672.8 598.9 700.9 610.1C729 621.3 755.2 635.1 762.1 643.8L797.7 569.5C797.7 569.5 773.8 554.7 759.6 552.7C745.7 550.8 706.2 507.1 706.2 507.1Z" fill="#FDDFD2"/>
<path d="M1158.6 93.8999L1125.8 168.8C1125.8 168.8 1125.2 185.7 1153.3 196.9C1181.4 208.1 1207.6 221.9 1214.5 230.6L1250.1 156.3C1250.1 156.3 1226.2 141.5 1212 139.5C1198.1 137.6 1158.6 93.8999 1158.6 93.8999Z" fill="#FDDFD2"/>
<path d="M47.9 156.2L55.2 137.4L0.5 101.1L47.9 156.2Z" fill="#1A1A1A"/>
<path d="M55.2 137.4L70.9 132.1L0.5 101.1L55.2 137.4Z" fill="#FDDFD2"/>
<path d="M36.6 143.1L47.9 156.2V139.4L36.6 143.1Z" fill="#1A1A1A"/>
<path d="M0.5 101.1L22.2 147.7L47.9 139.4L0.5 101.1Z" fill="#FDDFD2"/>
<path d="M97.4 229.1C95.6 229.1 93.9 228.9 92.1 228.6C79.3 226.1 70.6 214.7 65.1 206.4C56.6 193.5 50 179.5 45.5 164.7L46.5 164.4C51 179.1 57.5 193 66 205.8C74.5 218.8 82.9 225.7 92.3 227.6C106.1 230.3 118.8 221.2 125.2 215.5C130.1 211.2 134.4 206.3 138.1 201C134.6 192.7 133 183.5 133.4 174.5C133.6 170.7 134.9 165.3 138.2 162.3C139.8 160.9 141.6 160.2 143.6 160.3C145.9 160.4 147.8 161.5 149.2 163.5C152 167.5 151.8 174.6 150.2 179.4C147.6 187.2 143.9 194.5 139.3 201.2C140.3 203.6 141.5 205.9 142.8 208.1C146.1 213.6 151.6 220.4 159.5 221.9C166.2 223.1 173 220.1 178.2 217.3C203.1 204 222.2 181.8 240.6 160.3C260.6 137.1 281.2 113 309.3 100.4C334.4 89.0999 362.6 88.0999 391.7 87.9999C409.9 87.8999 427.4 88.6999 441 98.5999C448.7 104.2 454.2 112.2 459.6 120C465.4 128.4 471.4 137.1 480 142.5C491.7 149.8 508.3 150.5 524.3 144.4C538.8 138.8 551.1 128.9 563 119.4L650.1 49.3999L650.7 50.1999L563.6 120.2C551.7 129.8 539.3 139.7 524.7 145.4C508.4 151.7 491.6 150.9 479.6 143.4C470.8 137.9 464.7 129.1 458.9 120.6C453.6 112.9 448.1 104.9 440.6 99.3999C427.3 89.6999 410 88.9999 391.9 88.9999C362.9 89.0999 334.8 90.0999 309.9 101.3C282 113.8 261.5 137.8 241.6 160.9C223.1 182.4 204 204.7 178.9 218.1C173.6 220.9 166.6 224 159.6 222.8C151.3 221.3 145.6 214.2 142.2 208.6C141 206.5 139.8 204.3 138.9 202.1C135.2 207.3 131 212 126.2 216.3C120.1 221.4 109.5 229.1 97.4 229.1ZM143.1 161.3C141.5 161.3 140 161.9 138.8 163C135.8 165.7 134.5 170.9 134.3 174.5C133.9 183.1 135.4 191.9 138.7 200C143.1 193.5 146.6 186.5 149.1 179C150.6 174.4 150.8 167.8 148.3 164C147.1 162.3 145.5 161.4 143.5 161.3C143.3 161.3 143.2 161.3 143.1 161.3Z" fill="#1A1A1A"/>
<path d="M549.991 293.686L470.995 328.687L519.648 438.494L598.643 403.493L549.991 293.686Z" fill="#FDDFD2"/>
<path d="M1301.2 352.169L1072.61 558.591L1096.93 585.533L1325.53 379.111L1301.2 352.169Z" fill="#FDDFD2"/>
<path d="M1078.3 575.5L1077.7 574.7L1307.1 373.9L1317.5 386.6L1316.7 387.2L1306.9 375.3L1078.3 575.5Z" fill="#1A1A1A"/>
<path d="M1235.39 460.721L1223.46 447.783L1222.72 448.461L1234.65 461.399L1235.39 460.721Z" fill="#1A1A1A"/>
<path d="M1131.21 554.675L1118.61 539.528L1117.84 540.167L1130.44 555.315L1131.21 554.675Z" fill="#1A1A1A"/>
<path d="M1137.88 548.788L1124.92 534.084L1124.17 534.745L1137.13 549.449L1137.88 548.788Z" fill="#1A1A1A"/>
<path d="M1312.93 390.759L1303.14 378.096L1302.35 378.708L1312.14 391.37L1312.93 390.759Z" fill="#1A1A1A"/>
<path d="M786.4 775.1L753.5 717.6L816.9 681.4L849.8 738.9L786.4 775.1ZM754.9 717.9L786.8 773.7L848.4 738.5L816.5 682.7L754.9 717.9Z" fill="#1A1A1A"/>
<path d="M781.6 817.3C760.4 817.3 743.1 800 743.1 778.8C743.1 757.6 760.4 740.3 781.6 740.3C802.8 740.3 820.1 757.6 820.1 778.8C820.1 800 802.8 817.3 781.6 817.3ZM781.6 741.3C760.9 741.3 744.1 758.1 744.1 778.8C744.1 799.5 760.9 816.3 781.6 816.3C802.3 816.3 819.1 799.5 819.1 778.8C819.1 758.1 802.3 741.3 781.6 741.3Z" fill="#1A1A1A"/>
<path d="M930 727.7L847.1 680.3L891.1 603.3L930 727.7ZM848.4 679.9L928.3 725.5L890.8 605.8L848.4 679.9Z" fill="#1A1A1A"/>
</svg>
